<?xml version="1.0" standalone="no"?>
<!DOCTYPE svg PUBLIC "-//W3C//DTD SVG 1.1//EN" "http://www.w3.org/Graphics/SVG/1.1/DTD/svg11.dtd" >
<svg xmlns="http://www.w3.org/2000/svg">
<metadata></metadata>
<defs>
<font id="charcoalregular" horiz-adv-x="1188" >
<font-face units-per-em="2048" ascent="1536" descent="-512" />
<missing-glyph horiz-adv-x="510" />
<glyph unicode="&#xd;" horiz-adv-x="510" />
<glyph horiz-adv-x="2388" d="M172 512l1024 1024l1024 -1024h-512v-512h-1024v512h-512zM584 683l268 1v-512h684v512h270l-610 610z" />
<glyph horiz-adv-x="1876" d="M256 852l684 684l684 -684l-218 -218l-466 466l-466 -466z" />
<glyph horiz-adv-x="2328" d="M140 1204v272h705l680 -1204h663v-272h-813l-680 1204h-555zM1334 1204v272h854v-272h-854z" />
<glyph unicode="&#xa;" horiz-adv-x="2644" d="M172 0h1536l768 768l-768 768h-1536v-1536zM344 167v1202h1280l601 -601l-601 -601h-1280zM629 406l121 -121l362 362l360 -362l121 121l-360 362l360 362l-121 121l-360 -362l-362 362l-121 -121l362 -362z" />
<glyph horiz-adv-x="2388" d="M206 726v384q0 139 100.5 239.5t243.5 100.5h430v-272h-314q-70 0 -120 -39t-50 -109v-224q0 -70 50 -114t120 -44h1092v360l496 -498l-496 -494v360h-1208q-143 0 -243.5 105.5t-100.5 244.5z" />
<glyph horiz-adv-x="1876" d="M172 340q0 143 100.5 243.5t239.5 100.5h172v168h-172q-141 0 -240.5 102.5t-99.5 239.5q0 141 100.5 241.5t239.5 100.5t240.5 -100.5t101.5 -239.5v-172h170v172q0 139 101.5 239.5t238.5 100.5q141 0 242.5 -100.5t101.5 -239.5t-100.5 -241.5t-243.5 -102.5h-168 v-168h170q139 0 240.5 -101.5t101.5 -242.5q0 -137 -100.5 -238.5t-241.5 -101.5q-139 0 -240.5 100.5t-101.5 239.5v172h-170v-172q0 -137 -100.5 -238.5t-241.5 -101.5q-139 0 -239.5 100.5t-100.5 239.5zM342 340q0 -70 50 -119t120 -49t121 49t51 119v172h-172 q-72 0 -121 -51t-49 -121zM342 1196q0 -72 50 -122t120 -50h172v172q0 70 -51 119t-121 49t-120 -49t-50 -119zM854 684h170v168h-170v-168zM1196 340q0 -70 50 -119t120 -49t120 50t50 118q0 72 -50 122t-120 50h-170v-172zM1196 1024h170q72 0 121 51t49 121t-50 119 t-120 49t-120 -49t-50 -119v-172z" />
<glyph horiz-adv-x="1886" d="M84 512l195 195l317 -313l1000 995l196 -193l-1196 -1196z" />
<glyph horiz-adv-x="1536" d="M172 596l596 600l598 -600l-598 -596z" />
<glyph horiz-adv-x="1810" d="M174 762q0 235 116 382.5t292 147.5q75 0 180.5 -30.5t142.5 -30.5q45 0 146.5 34.5t177.5 34.5q61 0 115.5 -16t101.5 -49q24 -18 53 -45t55 -60q-41 -32 -69.5 -64t-46.5 -56q-33 -47 -50.5 -100.5t-17.5 -110.5q0 -127 71.5 -229.5t162.5 -129.5q-19 -61 -51.5 -125.5 t-75.5 -130.5q-66 -102 -132.5 -151t-132.5 -49q-51 0 -142 32.5t-155 32.5q-63 0 -146 -34.5t-136 -34.5q-78 0 -155 66.5t-152 199.5q-76 131 -114 260t-38 256zM874 1272q3 151 80.5 263t255.5 153q4 -15 5.5 -24t1.5 -22q0 -63 -30 -139t-95 -141q-27 -27 -54.5 -45.5 t-56.5 -28.5q-16 -6 -43 -10t-64 -6z" />
<glyph horiz-adv-x="2644" d="M172 768l768 768h1536v-1536h-1536zM423 768l601 -601h1280v1202h-1280zM1055 406l360 362l-360 362l121 121l360 -362l362 362l121 -121l-362 -362l362 -362l-121 -121l-362 362l-360 -362z" />
<glyph horiz-adv-x="2220" d="M172 0v1536h352l-157 252l145 88l215 -340h766l215 340l143 -88l-157 -252h354v-1536h-354l157 -252l-143 -88l-215 340h-766l-215 -340l-145 88l157 252h-352zM342 172h291l377 596l-377 596h-291v-1192zM834 172h550l-274 436zM834 1364l276 -436l274 436h-550z M1210 768l377 -596h291v1192h-291z" />
<glyph horiz-adv-x="0" />
<glyph unicode=" "  horiz-adv-x="510" />
<glyph unicode="&#x09;" horiz-adv-x="510" />
<glyph unicode="&#xa0;" horiz-adv-x="510" />
<glyph unicode="!" horiz-adv-x="709" d="M172 1509h365l-39 -995h-287zM195 0v319h319v-319h-319z" />
<glyph unicode="&#x22;" horiz-adv-x="1020" d="M84 1509h342l-66 -485h-223zM596 1509h342l-66 -485h-223z" />
<glyph unicode="#" horiz-adv-x="1528" d="M0 358l53 240h383l74 313h-387l53 240h391l84 358h178l-86 -358h230l84 358h176l-86 -358h381l-62 -240h-376l-74 -313h389l-57 -240h-387l-89 -358h-172l86 358h-233l-86 -358h-172l84 358h-379zM610 598h232l73 313h-229z" />
<glyph unicode="$" horiz-adv-x="1195" d="M95 33l2 246q51 -23 140.5 -50.5t252.5 -29.5l54 469q-11 4 -24 9t-28 11q-155 62 -261.5 161t-106.5 265q0 193 145.5 299.5t368.5 114.5l18 172h148l-21 -176q72 -6 136.5 -17.5t113.5 -25.5v-228q-74 29 -135 39.5t-139 14.5l-43 -396q239 -100 319 -212.5t80 -247.5 q0 -199 -134 -325t-368 -142l-16 -154h-145l16 150q-127 2 -211 16t-162 37zM404 1165q0 -65 30 -105t142 -89l37 338q-86 -15 -147.5 -46.5t-61.5 -97.5zM638 203q72 14 124 56t52 132q0 60 -26.5 111t-106.5 98z" />
<glyph unicode="%" horiz-adv-x="1877" d="M89 1151v55q0 127 101.5 226.5t291.5 99.5q180 0 280.5 -93t100.5 -233v-53q0 -147 -104.5 -237.5t-276.5 -90.5q-170 0 -281.5 94.5t-111.5 231.5zM289 0l1035 1509h256l-1035 -1509h-256zM347 1163q0 -69 28.5 -125.5t108.5 -56.5q72 0 97.5 52t25.5 130v17 q0 82 -23.5 132t-101.5 50q-76 0 -105.5 -48t-29.5 -134v-17zM1006 303v55q0 123 102.5 224.5t291.5 101.5q180 0 279 -92t99 -234v-53q0 -166 -105.5 -247t-272.5 -81q-181 0 -287.5 92.5t-106.5 233.5zM1264 315q0 -69 29 -125.5t109 -56.5q71 0 96.5 52.5t25.5 129.5v17 q0 82 -23.5 132t-100.5 50q-76 0 -106 -48t-30 -134v-17z" />
<glyph unicode="&#x26;" horiz-adv-x="1450" d="M63 358q0 154 83 262.5t262 227.5q-121 143 -146.5 212.5t-25.5 129.5q0 149 104 244.5t272 95.5q199 0 297.5 -94.5t98.5 -229.5q0 -121 -60.5 -204.5t-218.5 -196.5q53 -72 103.5 -129.5t130.5 -157.5q81 90 124 165t91 202l225 -123q-39 -117 -116 -241t-146 -193 q125 -138 185 -205.5t110 -122.5h-160h-156q-49 49 -78.5 82t-78.5 86q-99 -109 -214.5 -151t-230.5 -42q-225 0 -340 104.5t-115 278.5zM367 381q0 -70 42 -110t128 -40q65 0 128.5 28t129.5 101q-82 95 -128 150t-118 147q-96 -84 -139 -147.5t-43 -128.5zM498 1182 q0 -23 19.5 -63t82.5 -126q72 58 107.5 99t35.5 84q0 59 -27.5 98t-99.5 39q-67 0 -92.5 -44t-25.5 -87z" />
<glyph unicode="'" horiz-adv-x="512" d="M96 1509h321l-37 -489h-248z" />
<glyph unicode="(" horiz-adv-x="850" d="M84 688q0 334 197.5 597t459.5 271v-149q-125 -49 -231.5 -266t-106.5 -453q0 -254 106.5 -461t231.5 -256v-149q-262 8 -459.5 239.5t-197.5 626.5z" />
<glyph unicode=")" horiz-adv-x="850" d="M109 -29q161 56 249 243t88 474q0 236 -98 453t-239 266v149q264 0 460.5 -246.5t196.5 -621.5q0 -385 -193.5 -618.5t-463.5 -247.5v149z" />
<glyph unicode="*" horiz-adv-x="1102" d="M82 850v170h252l-211 211l123 123l303 -303l303 303l123 -123l-211 -211h252v-170h-266l225 -225l-123 -123l-303 303l-303 -303l-123 123l225 225h-266z" />
<glyph unicode="+" d="M113 582v217h368v356h226v-356h368v-217h-368v-357h-226v357h-368z" />
<glyph unicode="," horiz-adv-x="584" d="M125 0v340h340v-340q0 -178 -103.5 -257t-236.5 -79v127q84 0 134 35t50 174h-184z" />
<glyph unicode="-" horiz-adv-x="1190" d="M102 561v238h981v-238h-981z" />
<glyph unicode="&#xad;" horiz-adv-x="1190" d="M102 561v238h981v-238h-981z" />
<glyph unicode="." horiz-adv-x="584" d="M133 0v326h326v-326h-326z" />
<glyph unicode="/" horiz-adv-x="948" d="M-45 -170l827 1679h226l-828 -1679h-225z" />
<glyph unicode="0" d="M57 688v123q0 344 136.5 532.5t400.5 188.5t400.5 -188.5t136.5 -532.5v-123q0 -360 -143.5 -536.5t-393.5 -176.5t-393.5 176.5t-143.5 536.5zM395 729q0 -305 41 -414.5t158 -109.5q119 0 159.5 109.5t40.5 414.5v41q0 305 -40.5 419t-159.5 114t-159 -114t-40 -419 v-41z" />
<glyph unicode="1" d="M317 1149v182q143 12 219 77t98 101h203v-1509h-309v1149h-211z" />
<glyph unicode="2" d="M72 1159q45 193 184 282t356 89q234 0 360 -124t126 -308q0 -197 -173 -400.5t-563 -472.5h748v-225h-1028v254q389 336 533.5 502t144.5 299q0 100 -47 172.5t-148 72.5q-112 0 -148 -41.5t-55 -99.5h-290z" />
<glyph unicode="3" d="M43 252l207 127q28 -68 108 -119t191 -51q110 0 174.5 66.5t64.5 189.5q0 96 -58.5 158.5t-176.5 62.5h-152v213h160q104 0 156.5 49t52.5 148q0 96 -41 151.5t-135 55.5q-86 0 -132.5 -30t-70.5 -83h-271q29 139 147 240.5t327 101.5q247 0 368 -114.5t121 -278.5 q0 -148 -73.5 -226.5t-159.5 -101.5q106 -39 181 -131t75 -242q0 -209 -145.5 -336t-381.5 -127q-207 0 -339 78t-197 199z" />
<glyph unicode="4" d="M41 729l781 780h204v-852h107v-219h-107v-438h-307v438h-661zM264 657h459v459z" />
<glyph unicode="5" d="M12 297l224 129q47 -115 123.5 -167t175.5 -52q127 0 191.5 79t64.5 234q0 148 -64.5 223.5t-183.5 75.5q-60 0 -123.5 -23.5t-124.5 -74.5l-197 113l29 675h858v-225h-610l-13 -280q56 40 144 53.5t125 13.5q221 0 362.5 -147.5t141.5 -372.5q0 -305 -163 -441.5 t-421 -136.5q-193 0 -326 78t-213 246z" />
<glyph unicode="6" d="M43 647q1 45 1 58q18 362 184 591.5t469 229.5q80 0 140.5 -10.5t111.5 -20.5v-260q-68 16 -130.5 26.5t-121.5 10.5q-141 0 -217 -93.5t-90 -252.5q29 51 118 92t167 41q233 0 363 -135.5t130 -384.5q0 -258 -146.5 -411t-406.5 -153q-278 0 -415.5 146.5t-155.5 451.5 q-2 29 -1 74zM373 514q0 -166 60.5 -237.5t167.5 -71.5q104 0 165.5 70.5t61.5 238.5q0 160 -61.5 235.5t-165.5 75.5q-92 0 -160 -74.5t-68 -236.5z" />
<glyph unicode="7" d="M64 1284v225h1047v-256q-238 -149 -388.5 -451t-129.5 -802h-330q0 346 147.5 712.5t444.5 571.5h-791z" />
<glyph unicode="8" d="M92 421q0 113 65.5 219t186.5 151v22q-104 35 -158.5 119t-54.5 207q0 161 122 276t341 115q223 0 339 -113.5t116 -290.5q0 -114 -52.5 -197t-144.5 -116v-22q113 -35 180.5 -119t67.5 -226q0 -219 -139.5 -345t-366.5 -126q-244 0 -373 115t-129 331zM389 438 q0 -123 53.5 -178t151.5 -55q90 0 148.5 55t58.5 178q0 129 -53.5 188.5t-153.5 59.5q-97 0 -151 -56.5t-54 -191.5zM430 1100q0 -107 43 -154t121 -47q68 0 117 45t49 156q0 102 -42 151t-124 49t-123 -50t-41 -150z" />
<glyph unicode="9" d="M31 967q0 258 145 411t405 153q278 0 415.5 -146.5t155.5 -451.5q2 -29 1.5 -74t-1.5 -58q-19 -373 -181.5 -597t-471.5 -224q-80 0 -140.5 10.5t-111.5 20.5v260q68 -16 130.5 -26.5t121.5 -10.5q145 0 223 93t84 253q-29 -51 -118 -92t-167 -41q-233 0 -361.5 135.5 t-128.5 384.5zM371 989q0 -160 60 -235.5t164 -75.5q92 0 160 74.5t68 236.5q0 166 -60.5 237.5t-167.5 71.5q-104 0 -164 -70.5t-60 -238.5z" />
<glyph unicode=":" horiz-adv-x="510" d="M98 0v326h326v-326h-326zM98 823v326h326v-326h-326z" />
<glyph unicode=";" horiz-adv-x="510" d="M98 0v326h326v-299q0 -179 -96.5 -271t-229.5 -92v127q84 0 129 35t45 174h-174zM98 823v326h326v-326h-326z" />
<glyph unicode="&#x3c;" horiz-adv-x="1024" d="M75 496v202l850 402v-248l-531 -258l531 -252v-248z" />
<glyph unicode="=" d="M125 236v237h940v-237h-940zM125 715v237h940v-237h-940z" />
<glyph unicode="&#x3e;" horiz-adv-x="1024" d="M99 94l850 402v202l-850 402v-248l531 -258l-531 -252v-248z" />
<glyph unicode="?" horiz-adv-x="918" d="M27 1176v223q79 57 182.5 94t261.5 37q240 0 340 -98.5t100 -223.5q0 -94 -34.5 -173t-149.5 -146q-90 -53 -137 -124t-47 -153v-96v-51h-273v69.5v118.5q0 90 48.5 172t119.5 131q94 66 124 105t30 113q0 61 -44 98t-159 37q-102 0 -201.5 -43t-160.5 -90zM252 0v322 h313v-322h-313z" />
<glyph unicode="@" horiz-adv-x="1870" d="M129 594q0 410 239.5 678t600.5 268q362 0 586.5 -221t224.5 -631q0 -194 -100.5 -356t-266.5 -162q-123 0 -183.5 43t-78.5 149q-29 -102 -88 -148t-178 -46q-131 0 -221.5 97t-90.5 323q0 190 95.5 314t273.5 124q68 0 116 -27.5t70 -70.5v60v32h191l-1 -194.5 t-1 -331.5q0 -82 20.5 -112t65.5 -30q104 0 145 113t41 203q0 327 -171 509.5t-451 182.5q-254 0 -441.5 -216t-187.5 -550q0 -361 177 -558.5t456 -197.5q86 0 192.5 19.5t175.5 56.5v-176q-63 -33 -155 -57.5t-213 -24.5q-385 0 -613.5 255t-228.5 683zM770 582 q0 -82 34 -160t126 -78q88 0 143 68.5t55 171.5v39v43q0 90 -45 143t-141 53q-82 0 -127 -67.5t-45 -212.5z" />
<glyph unicode="A" horiz-adv-x="1358" d="M4 0l508 1509h317l523 -1509h-348l-111 362h-498l-114 -362h-277zM461 580h360l-186 555z" />
<glyph unicode="B" horiz-adv-x="1298" d="M147 0v1509h535q229 0 325.5 -80.5t96.5 -224.5q0 -127 -59.5 -200.5t-182.5 -96.5q152 -20 250 -130.5t98 -297.5q0 -229 -143 -354t-395 -125h-525zM475 217h133q144 0 205 71.5t61 207.5q0 122 -66.5 192t-217.5 70h-115v-541zM475 958h119q104 0 147 44.5t43 119.5 q0 90 -48 130t-144 40h-117v-334z" />
<glyph unicode="C" horiz-adv-x="1190" d="M78 717v61q0 340 195.5 546t490.5 206q127 0 212 -14.5t132 -38.5v-240q-43 23 -116.5 41t-172.5 18q-184 0 -287.5 -143t-103.5 -395v-21q0 -270 96.5 -399t263.5 -129q113 0 193 22.5t127 42.5v-233q-35 -23 -127 -44.5t-213 -21.5q-305 0 -497.5 188.5t-192.5 553.5z " />
<glyph unicode="D" horiz-adv-x="1360" d="M147 0v1509h496q340 0 486.5 -194.5t146.5 -530.5v-61q0 -367 -145.5 -545t-430.5 -178h-553zM487 225h156q145 0 218 105.5t73 402.5v41q0 248 -86 379t-234 131h-127v-1059z" />
<glyph unicode="E" horiz-adv-x="1167" d="M147 0v1509h918v-225h-578v-405h449v-228h-449v-426h619v-225h-959z" />
<glyph unicode="F" horiz-adv-x="1110" d="M147 0v1509h918v-225h-578v-405h449v-228h-449v-651h-340z" />
<glyph unicode="G" horiz-adv-x="1360" d="M84 717v82q0 323 187.5 527t525.5 204q127 0 214 -23.5t128 -46.5v-243q-52 24 -130.5 51.5t-181.5 27.5q-182 0 -292.5 -124.5t-110.5 -413.5v-21q0 -301 86 -416.5t238 -115.5q83 0 151 28.5t90 65.5v309h-231v201h516v-582q-70 -110 -204 -181t-349 -71 q-297 0 -467 189.5t-170 552.5z" />
<glyph unicode="H" horiz-adv-x="1360" d="M147 0v1509h340v-628h385v628h340v-1509h-340v649h-385v-649h-340z" />
<glyph unicode="I" horiz-adv-x="750" d="M205 0v1509h340v-1509h-340z" />
<glyph unicode="J" horiz-adv-x="954" d="M70 45v231q39 -16 103.5 -30.5t129.5 -14.5q62 0 107 34t45 114v1130h340v-1159q0 -153 -101.5 -258.5t-308.5 -105.5q-121 0 -194.5 16t-120.5 43z" />
<glyph unicode="K" horiz-adv-x="1339" d="M147 0v1509h340v-635l471 635h338l-571 -706l653 -803h-399l-442 555l-50 -63v-492h-340z" />
<glyph unicode="L" horiz-adv-x="1126" d="M147 0v1509h340v-1284h560v-225h-900z" />
<glyph unicode="M" horiz-adv-x="1880" d="M127 0v1509h252l567 -1099l576 1099h223v-1509h-311v866l-463 -866h-176l-433 866v-866h-235z" />
<glyph unicode="N" horiz-adv-x="1397" d="M127 0v1509h182l719 -893v893h242v-1509h-146l-755 948v-948h-242z" />
<glyph unicode="O" horiz-adv-x="1365" d="M69 702v86q0 328 159.5 535t467.5 207q301 0 455.5 -210t154.5 -532v-81q0 -357 -170 -544.5t-449 -187.5q-276 0 -447 187.5t-171 539.5zM411 731q0 -311 49 -427t227 -116q146 0 211.5 125t65.5 414v41q0 279 -48 414t-229 135q-167 0 -221.5 -120t-54.5 -429v-37z" />
<glyph unicode="P" horiz-adv-x="1190" d="M147 0v1509h566q243 0 338.5 -117.5t95.5 -273.5v-119q0 -192 -117 -289.5t-338 -97.5h-205v-612h-340zM487 819h124q80 0 134 41t54 117v145q0 86 -48 127t-158 41h-106v-471z" />
<glyph unicode="Q" horiz-adv-x="1365" d="M64 707v81q0 338 167 540t451 202q302 0 460.5 -198.5t158.5 -543.5v-81q0 -306 -133 -495t-340 -210q6 -88 44 -127t142 -39h117h61v-176h-299q-178 0 -271 103.5t-99 238.5q-252 76 -355.5 259t-103.5 446zM406 727q0 -303 50 -421t226 -118q142 0 209.5 122t67.5 417 v41q0 322 -58.5 435.5t-218.5 113.5q-159 0 -217.5 -110.5t-58.5 -438.5v-41z" />
<glyph unicode="R" horiz-adv-x="1251" d="M147 0v1509h594q217 0 307.5 -94t90.5 -231v-82q0 -129 -79 -207t-237 -92q178 -53 267.5 -235.5t89.5 -567.5h-336q-4 365 -69.5 521.5t-207.5 156.5h-80v-678h-340zM487 895h92q121 0 173 44t52 132v41q0 98 -52 140t-154 42h-111v-399z" />
<glyph unicode="S" horiz-adv-x="1155" d="M27 47v260q57 -35 179 -64.5t240 -29.5q166 0 228.5 44t62.5 146q0 66 -45 117t-256 135q-168 68 -260 173.5t-92 287.5q0 174 148.5 294t410.5 120q127 0 228.5 -20.5t142.5 -36.5v-230q-86 21 -171 37t-181 16q-136 0 -196 -42t-60 -105q0 -80 45 -121t264 -121 q204 -74 290.5 -187.5t86.5 -270.5q0 -240 -160 -354.5t-445 -114.5q-163 0 -275 19t-185 48z" />
<glyph unicode="T" horiz-adv-x="1024" d="M10 1284v225h1004v-225h-328v-1284h-340v1284h-336z" />
<glyph unicode="U" horiz-adv-x="1343" d="M135 494v1015h340v-1056q0 -123 55.5 -184.5t192.5 -61.5q127 0 188.5 55t61.5 197v1050h252v-1073q0 -213 -131 -333.5t-406 -120.5q-295 0 -424 129t-129 383z" />
<glyph unicode="V" horiz-adv-x="1247" d="M-23 1509h367l324 -1042l323 1042h279l-512 -1509h-285z" />
<glyph unicode="W" horiz-adv-x="1931" d="M-20 1509h344l262 -956l299 956h241l301 -956l246 956h275l-418 -1509h-246l-317 983l-324 -983h-246z" />
<glyph unicode="X" horiz-adv-x="1251" d="M-8 0l465 754l-416 755h385l258 -465l281 465h284l-434 -700l447 -809h-385l-287 518l-314 -518h-284z" />
<glyph unicode="Y" horiz-adv-x="1327" d="M-10 1509h397l332 -606l352 606h270l-501 -870v-639h-340v606z" />
<glyph unicode="Z" horiz-adv-x="1108" d="M37 0v205l663 1079h-634v225h1011v-200l-665 -1084h665v-225h-1040z" />
<glyph unicode="[" horiz-adv-x="809" d="M129 -223v1732h578v-184h-279v-1350h279v-198h-578z" />
<glyph unicode="\" horiz-adv-x="948" d="M-45 1509h225l828 -1679h-226z" />
<glyph unicode="]" horiz-adv-x="809" d="M109 -25h278v1350h-278v184h577v-1732h-577v198z" />
<glyph unicode="^" horiz-adv-x="1126" d="M0 657l442 852h244l440 -852h-315l-258 465l-238 -465h-315z" />
<glyph unicode="_" horiz-adv-x="1020" d="M0 -150h1020v-210h-1020v210z" />
<glyph unicode="`" horiz-adv-x="1024" d="M225 1677h295l250 -354h-217z" />
<glyph unicode="a" horiz-adv-x="1238" d="M83 373v20q0 193 131 297.5t352 104.5q67 0 132 -19.5t95 -48.5v113q0 59 -54 100t-153 41q-106 0 -189 -23.5t-144 -58.5v197q79 32 176.5 55t236.5 23q223 0 329.5 -100.5t106.5 -321.5v-752h-299l-6 150q-37 -72 -124 -118t-203 -46q-191 0 -289 96t-98 291zM406 383 q0 -117 55.5 -156t141.5 -39q74 0 133 47.5t59 149.5v31q0 104 -49 158.5t-145 54.5q-90 0 -142.5 -51.5t-52.5 -163.5v-31z" />
<glyph unicode="b" horiz-adv-x="1298" d="M150 0v1509h319v-520q76 115 159 150t175 35q178 0 287.5 -130.5t109.5 -386.5v-131q0 -245 -123 -393.5t-358 -148.5q-60 0 -133.5 19.5t-122.5 62.5l-4 -66h-309zM469 264q10 -41 62.5 -75.5t132.5 -34.5q88 0 147 78.5t59 320.5v84q0 186 -54 248.5t-140 62.5 q-62 0 -123 -40t-84 -95v-549z" />
<glyph unicode="c" horiz-adv-x="1124" d="M102 553v49q0 262 162 420t438 158q109 0 197 -28t121 -60v-203q-43 39 -114.5 65.5t-155.5 26.5q-146 0 -223.5 -104.5t-77.5 -286.5v-21q0 -204 63 -289t203 -85q94 0 183 28.5t122 57.5v-220q-19 -16 -113 -51t-196 -35q-279 0 -444 144.5t-165 433.5z" />
<glyph unicode="d" horiz-adv-x="1298" d="M102 494v120q0 260 123 405.5t363 145.5q59 0 127.5 -16t118.5 -66v426h319v-1509h-307l-8 158q-72 -95 -147 -134.5t-187 -39.5q-172 0 -287 113.5t-115 396.5zM432 524q0 -178 47 -250.5t146 -72.5q67 0 124.5 36.5t84.5 88.5v573q-23 41 -67 68.5t-116 27.5 q-100 0 -159.5 -84t-59.5 -307v-80z" />
<glyph unicode="e" horiz-adv-x="1303" d="M102 530v82q0 238 144.5 403t419.5 165q262 0 401 -155t139 -404v-47v-60h-782q0 -192 87 -267t226 -75q92 0 188.5 23.5t198.5 70.5v-192q-88 -49 -194.5 -74t-245.5 -25q-266 0 -424 141.5t-158 413.5zM426 678h483q-10 170 -74.5 243.5t-168.5 73.5 q-91 0 -162.5 -72.5t-77.5 -244.5z" />
<glyph unicode="f" horiz-adv-x="680" d="M18 954v174h158v33q0 172 98.5 270.5t270.5 98.5q80 0 155.5 -20.5t128.5 -55.5l-84 -170q-30 23 -60 36t-77 13q-69 0 -92.5 -40t-23.5 -122v-43h215v-176h-218v-952h-319v954h-152z" />
<glyph unicode="g" horiz-adv-x="1337" d="M102 567v33q0 285 130 425t360 140q90 0 168 -28.5t123 -85.5v100h299v-993q0 -246 -159 -386.5t-437 -140.5q-82 0 -190.5 16.5t-192.5 57.5v221q86 -39 181 -54t165 -15q192 0 261 65.5t69 171.5v113q-27 -60 -113 -126.5t-250 -66.5q-186 0 -300 128t-114 425z M432 602q0 -217 54.5 -293t160.5 -76q105 0 160 84t55 285v72q0 172 -49 242.5t-158 70.5q-104 0 -163.5 -82t-59.5 -272v-31z" />
<glyph unicode="h" horiz-adv-x="1296" d="M150 0v1509h319v-534q53 76 149.5 137.5t241.5 61.5q144 0 216.5 -90.5t72.5 -276.5v-807h-320v807q0 53 -31.5 88t-99.5 35q-69 0 -129.5 -28t-99.5 -75v-827h-319z" />
<glyph unicode="i" horiz-adv-x="610" d="M137 1407q0 70 49.5 119t118.5 49q70 0 119 -49t49 -119q0 -72 -49 -121t-119 -49q-69 0 -118.5 49t-49.5 121zM145 0v1151h320v-1151h-320z" />
<glyph unicode="j" horiz-adv-x="633" d="M-170 -106q33 -11 82 -18t104 -7q78 0 117 38t39 126v1118h320v-1075q0 -207 -103.5 -319.5t-271.5 -112.5q-72 0 -151 8t-136 24v218zM164 1407q0 70 49 119t119 49q69 0 118.5 -49t49.5 -119q0 -72 -49.5 -121t-118.5 -49q-70 0 -119 49t-49 121z" />
<glyph unicode="k" horiz-adv-x="1190" d="M150 0v1509h319v-825l385 467h295l-444 -512l507 -639h-376l-367 469v-469h-319z" />
<glyph unicode="l" horiz-adv-x="635" d="M158 0v1509h319v-1509h-319z" />
<glyph unicode="m" horiz-adv-x="1954" d="M150 0v1151h307l6 -182q51 94 145 149.5t228 55.5q120 0 190.5 -57.5t103.5 -158.5q61 125 155 168.5t217 47.5h13q133 0 221 -98q92 -102 93 -263v-813h-320v807q0 47 -42.5 85t-100.5 38q-77 0 -130.5 -35t-86.5 -88v-807h-320v807q0 49 -38.5 86t-106.5 37 q-77 0 -128.5 -28.5t-86.5 -74.5v-827h-319z" />
<glyph unicode="n" horiz-adv-x="1296" d="M150 0v1151h307l6 -184q35 82 134.5 144.5t242.5 62.5q144 0 226.5 -90.5t82.5 -276.5v-807h-320v807q0 45 -38.5 84t-110.5 39q-69 0 -121.5 -29t-89.5 -74v-827h-319z" />
<glyph unicode="o" horiz-adv-x="1360" d="M102 541v73q0 254 155 410t423 156q270 0 423.5 -157t153.5 -409v-73q0 -267 -153.5 -416.5t-421.5 -149.5q-266 0 -423 153t-157 413zM434 569q0 -243 66.5 -323t179.5 -80q102 0 175 78t73 325v17q0 233 -72 318t-176 85q-109 0 -177.5 -91t-68.5 -312v-17z" />
<glyph unicode="p" horiz-adv-x="1298" d="M150 -342v1493h307l8 -170q38 88 134.5 140.5t211.5 52.5q158 0 273.5 -116t115.5 -392v-134q0 -262 -127 -404t-354 -142q-60 0 -130.5 16t-119.5 59v-403h-319zM469 268q8 -39 61.5 -75.5t133.5 -36.5q71 0 138.5 72.5t67.5 320.5v76q0 186 -50 254.5t-136 68.5 q-68 0 -128 -39t-87 -84v-557z" />
<glyph unicode="q" horiz-adv-x="1298" d="M102 506v151q0 215 126 361.5t358 146.5q94 0 162.5 -26.5t109.5 -87.5l66 100h229v-1493h-319v494q-29 -52 -114 -110t-208 -58q-190 0 -300 116.5t-110 405.5zM432 543q0 -187 45 -264.5t148 -77.5q71 0 123.5 33.5t85.5 91.5v579q-39 53 -86.5 71.5t-94.5 18.5 q-104 0 -162.5 -87t-58.5 -292v-73z" />
<glyph unicode="r" horiz-adv-x="1020" d="M150 0v1151h307l6 -182q45 98 116.5 151.5t168.5 53.5q144 0 216 -96q54 -72 54 -191q0 -40 -6 -86h-295q0 49 -20.5 84t-80.5 35q-57 0 -96 -31t-51 -66v-823h-319z" />
<glyph unicode="s" horiz-adv-x="932" d="M45 39v203q47 -27 133 -54.5t176 -27.5q115 0 176.5 39t61.5 100q0 59 -41 96t-209 88q-158 47 -215 133t-57 222q0 139 102 235t322 96q102 0 172.5 -15.5t132.5 -44.5v-185q-45 26 -128 43.5t-159 17.5q-88 0 -142.5 -30.5t-54.5 -82.5q0 -59 42 -82.5t188 -66.5 q186 -55 259 -144t73 -229q0 -160 -116 -267.5t-382 -107.5q-111 0 -202 18.5t-132 45.5z" />
<glyph unicode="t" horiz-adv-x="850" d="M33 954v164l149 8l107 383h200v-381h304v-176h-304v-590q0 -90 30 -132t116 -42q41 0 79 6.5t70 16.5v-180q-51 -21 -125.5 -31t-146.5 -10q-158 0 -250 101.5t-92 291.5v571h-137z" />
<glyph unicode="u" horiz-adv-x="1296" d="M150 346v805h319v-776q0 -90 38 -121t93 -31q70 0 129 25.5t100 79.5v823h320v-1151h-307l-6 180q-56 -76 -154 -139.5t-242 -63.5q-135 0 -212.5 81t-77.5 288z" />
<glyph unicode="v" horiz-adv-x="1190" d="M-6 1151h325l293 -780l322 780h254l-496 -1151h-233z" />
<glyph unicode="w" horiz-adv-x="1774" d="M-4 1151h319l273 -709l260 709h147l252 -709l275 709h254l-469 -1151h-197l-227 590l-242 -590h-197z" />
<glyph unicode="x" horiz-adv-x="1217" d="M-4 0l463 592l-406 559h371l215 -324l240 324h299l-408 -520l457 -631h-371l-270 395l-291 -395h-299z" />
<glyph unicode="y" horiz-adv-x="1190" d="M-8 1151h325l293 -774l318 774h260l-664 -1493h-264l182 385z" />
<glyph unicode="z" horiz-adv-x="1020" d="M41 0v213l588 733h-578v205h922v-213l-606 -733h632v-205h-958z" />
<glyph unicode="{" horiz-adv-x="809" d="M82 489v242q108 0 143 16.5t35 77.5q0 131 -1 218t-1 208q0 101 79 179.5t195 78.5h205v-192h-34.5h-71.5q-51 0 -58.5 -47t-7.5 -160q0 -240 -28.5 -354.5t-151.5 -143.5q125 -37 152.5 -113.5t27.5 -301.5q0 -230 7.5 -289.5t58.5 -59.5h71.5h34.5v-192h-205 q-124 0 -199 79t-75 179q0 121 -1 225.5t-1 233.5q0 61 -35 88.5t-139 27.5z" />
<glyph unicode="|" horiz-adv-x="850" d="M297 -410v1921h258v-1921h-258z" />
<glyph unicode="}" horiz-adv-x="809" d="M72 -152h34.5h71.5q51 0 58.5 59.5t7.5 289.5q0 225 27.5 301.5t152.5 113.5q-123 29 -151.5 143.5t-28.5 354.5q0 113 -7.5 160t-58.5 47h-71.5h-34.5v192h204q117 0 196 -78.5t79 -179.5q0 -121 -1 -208t-1 -218q0 -61 34.5 -77.5t143.5 -16.5v-242q-104 0 -139 -27.5 t-35 -88.5q0 -129 -1 -233.5t-1 -225.5q0 -100 -75 -179t-200 -79h-204v192z" />
<glyph unicode="~" horiz-adv-x="1303" d="M37 672q0 110 88 197t231 87q93 0 183 -45t163 -102q15 -12 18 -14t13 -13q53 -45 105.5 -79.5t103.5 -34.5q68 0 96.5 35.5t28.5 78.5q0 49 -17.5 90t-50.5 82h191q39 -41 61.5 -89t22.5 -134q0 -115 -82 -200t-238 -85q-92 0 -183 46.5t-165 103.5q-10 8 -16 11t-17 11 q-53 46 -103 81.5t-101 35.5q-68 0 -96.5 -35.5t-28.5 -78.5q0 -50 17.5 -91t49.5 -81h-190q-39 40 -61.5 88.5t-22.5 134.5z" />
<glyph unicode="&#xa1;" horiz-adv-x="709" d="M180 0l39 995h287l39 -995h-365zM203 1190v319h319v-319h-319z" />
<glyph unicode="&#xa2;" horiz-adv-x="1190" d="M141 616v23v27q0 256 152.5 401t386.5 162v160h170v-162q65 -6 112.5 -18.5t73.5 -24.5v-215q-43 18 -103.5 34.5t-144.5 16.5q-147 0 -231 -95.5t-84 -273.5v-20q0 -187 67.5 -294.5t213.5 -107.5q94 0 168.5 10.5t115.5 22.5v-219q-10 -12 -63 -24.5t-125 -16.5v-145 h-170v143q-252 16 -395.5 173t-143.5 443z" />
<glyph unicode="&#xa3;" horiz-adv-x="1190" d="M23 631v200h147v189q0 221 162 365.5t391 144.5q127 0 194.5 -12.5t155.5 -36.5v-228q-88 27 -154.5 37t-142.5 10q-141 0 -203.5 -68.5t-62.5 -238.5v-162h291v-200h-291v-406h618v-225h-958v631h-147z" />
<glyph unicode="&#xa4;" horiz-adv-x="1327" d="M94 236l225 225q-30 47 -46.5 105.5t-16.5 121.5q0 64 16.5 122t46.5 105l-225 226l142 141l225 -225q41 24 101.5 36.5t105.5 12.5q43 0 104.5 -12.5t101.5 -36.5l226 225l141 -141l-225 -226q31 -47 47 -110.5t16 -116.5q0 -63 -16 -121.5t-47 -105.5l225 -225 l-141 -142l-226 225q-40 -24 -101.5 -36.5t-104.5 -12.5q-45 0 -105.5 12.5t-101.5 36.5l-225 -225zM498 698q0 -84 45 -144t125 -60q84 0 127 56t43 148q0 84 -43 144.5t-127 60.5q-80 0 -125 -60.5t-45 -144.5z" />
<glyph unicode="&#xa5;" horiz-adv-x="1319" d="M-4 1509h377l336 -540l348 540h270l-522 -784v-82h321v-172h-321v-98h321v-172h-321v-201h-299v201h-322v172h322v98h-322v172h322v47z" />
<glyph unicode="&#xa6;" horiz-adv-x="850" d="M299 -408v820h258v-820h-258zM299 690v819h258v-819h-258z" />
<glyph unicode="&#xa7;" horiz-adv-x="907" d="M72 37v203q43 -21 128 -49.5t160 -28.5q105 0 155 37t50 90q0 41 -34.5 82t-174.5 104q-106 49 -185 111.5t-79 189.5q0 64 35 127.5t80 97.5q-60 31 -89.5 85.5t-29.5 127.5q0 129 96.5 222.5t282.5 93.5q104 0 186 -22.5t117 -41.5v-213q-49 33 -131 61.5t-170 28.5 q-78 0 -114 -26.5t-36 -75.5q0 -70 69 -106.5t153 -71.5q159 -66 228 -141.5t69 -149.5q0 -88 -32 -154.5t-91 -109.5q41 -25 75.5 -77t34.5 -142q0 -146 -118.5 -230t-307.5 -84q-102 0 -196 22.5t-131 39.5zM313 807q0 -72 57.5 -103.5t176.5 -87.5q20 17 30.5 48.5 t10.5 60.5q0 33 -46 78t-173 102q-25 -14 -40.5 -46t-15.5 -52z" />
<glyph unicode="&#xa8;" horiz-adv-x="1024" d="M152 1479q0 55 39.5 96t95.5 41q57 0 97 -41t40 -96q0 -58 -40 -99t-97 -41q-56 0 -95.5 41t-39.5 99zM610 1479q0 55 40 96t95 41q58 0 98 -41t40 -96q0 -58 -40 -99t-98 -41q-55 0 -95 41t-40 99z" />
<glyph unicode="&#xa9;" horiz-adv-x="1524" d="M98 690q0 277 194.5 472.5t469.5 195.5q274 0 468.5 -195.5t194.5 -472.5q0 -276 -194.5 -469.5t-468.5 -193.5q-275 0 -469.5 193.5t-194.5 469.5zM258 690q0 -209 147.5 -366.5t356.5 -157.5t357.5 157.5t148.5 366.5t-148.5 366.5t-357.5 157.5t-356.5 -157.5 t-147.5 -366.5zM444 657v35q0 158 99.5 246t257.5 88q80 0 130 -16.5t79 -32.5v-127q-29 20 -79 36.5t-100 16.5q-88 0 -133 -49t-45 -172v-14q0 -127 40 -166t128 -39q62 0 112 16.5t77 34.5v-135q-31 -19 -89.5 -35t-123.5 -16q-170 0 -261.5 76.5t-91.5 252.5z" />
<glyph unicode="&#xaa;" horiz-adv-x="969" d="M55 881v16q0 158 105.5 248t285.5 90q56 0 97 -16.5t67 -38.5v80q0 49 -33.5 72.5t-113.5 23.5q-86 0 -153.5 -21.5t-116.5 -50.5v184q63 25 142 43.5t191 18.5q183 0 269 -75t86 -253v-622h-263l-2 100q-30 -53 -91.5 -83t-155.5 -30q-156 0 -235 79t-79 235zM74 272 v191h805v-191h-805zM334 893q0 -88 39 -115.5t102 -27.5q55 0 98 34.5t43 110.5v18q0 78 -35.5 118t-107.5 40q-63 0 -101 -37t-38 -121v-20z" />
<glyph unicode="&#xab;" horiz-adv-x="1360" d="M55 496v213l619 381v-275l-346 -213l346 -205v-274zM674 496v213l618 381v-275l-346 -213l346 -205v-274z" />
<glyph unicode="&#xac;" horiz-adv-x="1195" d="M106 580v217h962v-439h-221v222h-741z" />
<glyph unicode="&#xae;" horiz-adv-x="1524" d="M98 690q0 277 194.5 472.5t469.5 195.5q274 0 468.5 -195.5t194.5 -472.5q0 -276 -194.5 -469.5t-468.5 -193.5q-275 0 -469.5 193.5t-194.5 469.5zM258 690q0 -209 147.5 -366.5t356.5 -157.5t357.5 157.5t148.5 366.5t-148.5 366.5t-357.5 157.5t-356.5 -157.5 t-147.5 -366.5zM520 342v711h109.5h167.5q112 0 167.5 -43t55.5 -111v-31.5v-29.5q0 -58 -32 -95.5t-81 -48.5q74 -39 101.5 -106.5t27.5 -128.5v-117h-190v29.5v97.5q0 76 -29 130t-78 54h-30.5h-18.5v-94v-217h-84h-86zM690 748h38h65q36 0 52.5 20t16.5 63v13v14 q0 33 -19.5 56.5t-49.5 23.5h-47.5h-55.5v-190z" />
<glyph unicode="&#xaf;" horiz-adv-x="1024" d="M152 1335v183h718v-183h-718z" />
<glyph unicode="&#xb0;" horiz-adv-x="823" d="M55 1163q0 152 108.5 260.5t260.5 108.5q151 0 260 -108.5t109 -260.5q0 -151 -109 -259.5t-260 -108.5q-152 0 -260.5 108.5t-108.5 259.5zM264 1163q0 -67 46 -113t114 -46t114 46t46 113q0 68 -46 114t-114 46t-114 -46t-46 -114z" />
<glyph unicode="&#xb1;" d="M195 0v217h811v-217h-811zM195 647v236h286v272h226v-272h288v-236h-288v-272h-226v272h-286z" />
<glyph unicode="&#xb2;" horiz-adv-x="918" d="M121 1268q22 123 124.5 191.5t227.5 68.5q174 0 252 -73t78 -185q0 -146 -186.5 -307.5t-249.5 -202.5h442v-170h-666v180q232 219 331 305t99 172q0 58 -29.5 82.5t-84.5 24.5q-68 0 -95.5 -29t-35.5 -57h-207z" />
<glyph unicode="&#xb3;" horiz-adv-x="918" d="M125 733l139 94q43 -55 89 -78.5t79 -23.5q82 0 119 36t37 105q0 76 -52.5 99.5t-109.5 23.5h-94v144h100q80 0 116 30.5t36 89.5q0 52 -34 81.5t-89 29.5q-70 0 -97.5 -28.5t-39.5 -67.5h-199q25 127 123 193.5t221 66.5q154 0 233.5 -67.5t79.5 -174.5 q0 -92 -37.5 -140t-82.5 -71q75 -31 110 -86t35 -133q0 -125 -92 -206t-252 -81q-98 0 -187.5 39t-150.5 125z" />
<glyph unicode="&#xb4;" horiz-adv-x="1024" d="M246 1323l250 354h295l-328 -354h-217z" />
<glyph unicode="&#xb5;" horiz-adv-x="1296" d="M150 -342v1493h319v-760q0 -110 41 -138t94 -28q70 0 134.5 28t90.5 83v815h320v-1151h-303l-17 168q-36 -82 -104 -125t-168 -43h-59.5t-55.5 8v-350h-292z" />
<glyph unicode="&#xb6;" horiz-adv-x="1192" d="M53 1034v51q0 189 139.5 306.5t391.5 117.5h487v-1509h-197v1284h-100v-1284h-215v616q-231 0 -368.5 99.5t-137.5 318.5zM309 1071q0 -100 57.5 -159.5t186.5 -59.5v428q-111 0 -177.5 -56.5t-66.5 -152.5z" />
<glyph unicode="&#xb7;" horiz-adv-x="680" d="M178 524v326h326v-326h-326z" />
<glyph unicode="&#xb8;" horiz-adv-x="1024" d="M389 -336q27 -14 55.5 -20t65.5 -6q41 0 69.5 24.5t28.5 67.5q0 55 -27.5 77.5t-74.5 22.5h-94v195h161v-82q107 0 170.5 -51.5t63.5 -147.5q0 -115 -85 -175.5t-185 -60.5q-74 0 -95.5 5.5t-52.5 17.5v133z" />
<glyph unicode="&#xb9;" horiz-adv-x="758" d="M129 1251v129q121 13 171 58t56 73h162v-921h-227v661h-162z" />
<glyph unicode="&#xba;" horiz-adv-x="1102" d="M90 1014v61q0 205 126 331t343 126q219 0 343 -127t124 -330v-61q0 -215 -124 -336t-341 -121t-344 124t-127 333zM111 272v191h874v-191h-874zM381 1038q0 -176 48 -234.5t130 -58.5q74 0 127 56.5t53 236.5v13q0 170 -52 231t-128 61q-80 0 -129 -66.5t-49 -225.5v-13z " />
<glyph unicode="&#xbb;" horiz-adv-x="1360" d="M68 123l618 373v213l-618 381v-275l346 -213l-346 -205v-274zM686 123l619 373v213l-619 381v-275l346 -213l-346 -205v-274z" />
<glyph unicode="&#xbc;" horiz-adv-x="1647" d="M62 1251v129q121 13 171 58t56 73h162v-921h-227v661h-162zM193 0l945 1509h217l-945 -1509h-217zM805 250v186l516 512h149v-508h156v-190h-156v-250h-217v250h-448zM1012 440h241v238z" />
<glyph unicode="&#xbd;" horiz-adv-x="1647" d="M62 1251v129q121 13 171 58t56 73h162v-921h-227v661h-162zM151 0l945 1509h217l-945 -1509h-217zM942 677q22 123 124.5 191.5t227.5 68.5q174 0 252 -73t78 -185q0 -146 -186.5 -307.5t-249.5 -202.5h442v-170h-666v180q232 219 331 305t99 172q0 58 -29.5 82.5 t-84.5 24.5q-68 0 -95.5 -29t-35.5 -57h-207z" />
<glyph unicode="&#xbe;" horiz-adv-x="1764" d="M17 733l139 94q43 -55 89 -78.5t79 -23.5q82 0 119 36t37 105q0 76 -52.5 99.5t-109.5 23.5h-94v144h100q80 0 116 30.5t36 89.5q0 52 -34 81.5t-89 29.5q-70 0 -97.5 -28.5t-39.5 -67.5h-199q25 127 123 193.5t221 66.5q154 0 233.5 -67.5t79.5 -174.5q0 -92 -37.5 -140 t-82.5 -71q75 -31 110 -86t35 -133q0 -125 -92 -206t-252 -81q-98 0 -187.5 39t-150.5 125zM303 0l945 1509h217l-945 -1509h-217zM906 247v186l516 512h149v-508h156v-190h-156v-250h-217v250h-448zM1113 437h241v238z" />
<glyph unicode="&#xbf;" horiz-adv-x="918" d="M14 303q0 107 45 181.5t140 138.5q88 59 136 126.5t48 149.5v97v51h272v-70v-119q0 -90 -48 -172t-120 -131q-94 -66 -123.5 -111t-29.5 -106q0 -62 44 -98.5t159 -36.5q102 0 201.5 43t160.5 90v-223q-80 -58 -183.5 -94.5t-260.5 -36.5q-240 0 -340.5 98t-100.5 223z M360 1190v321h314v-321h-314z" />
<glyph unicode="&#xc0;" horiz-adv-x="1358" d="M4 0l508 1509h317l523 -1509h-348l-111 362h-498l-114 -362h-277zM378 1941h295l250 -354h-217zM461 580h360l-186 555z" />
<glyph unicode="&#xc1;" horiz-adv-x="1358" d="M4 0l508 1509h317l523 -1509h-348l-111 362h-498l-114 -362h-277zM461 580h360l-186 555zM488 1583l250 354h295l-328 -354h-217z" />
<glyph unicode="&#xc2;" horiz-adv-x="1358" d="M4 0l508 1509h317l523 -1509h-348l-111 362h-498l-114 -362h-277zM195 1583l352 354h234l352 -354h-217l-252 193l-252 -193h-217zM461 580h360l-186 555z" />
<glyph unicode="&#xc3;" horiz-adv-x="1358" d="M4 0l508 1509h317l523 -1509h-348l-111 362h-498l-114 -362h-277zM235 1698q29 55 98.5 116.5t190.5 61.5q55 0 92 -17.5t72 -39.5q36 -23 71 -39t92 -16q52 0 80.5 25.5t53.5 68.5l110 -92q-29 -64 -103.5 -122.5t-172.5 -58.5q-66 0 -99.5 16.5t-79.5 41.5 q-45 24 -77.5 38.5t-75.5 14.5t-77 -14.5t-73 -67.5zM461 580h360l-186 555z" />
<glyph unicode="&#xc4;" horiz-adv-x="1358" d="M4 0l508 1509h317l523 -1509h-348l-111 362h-498l-114 -362h-277zM292 1726q0 55 39.5 96t95.5 41q57 0 97 -41t40 -96q0 -58 -40 -99t-97 -41q-56 0 -95.5 41t-39.5 99zM461 580h360l-186 555zM750 1726q0 55 40 96t95 41q58 0 98 -41t40 -96q0 -58 -40 -99t-98 -41 q-55 0 -95 41t-40 99z" />
<glyph unicode="&#xc5;" horiz-adv-x="1358" d="M4 0l467 1386q-39 33 -62.5 84.5t-23.5 110.5q0 111 80 187.5t197 76.5q118 0 197 -76.5t79 -187.5q0 -53 -18.5 -100t-51.5 -80l484 -1401h-348l-111 362h-498l-114 -362h-277zM461 580h360l-186 555zM530 1581q0 -53 40 -92t92 -39q53 0 92 39t39 92q0 51 -39 91 t-92 40q-52 0 -92 -40t-40 -91z" />
<glyph unicode="&#xc6;" horiz-adv-x="1786" d="M-55 0l692 1509h1036v-225h-563v-405h434v-228h-434v-426h602v-225h-934v362h-377l-161 -362h-295zM500 580h278v643z" />
<glyph unicode="&#xc7;" horiz-adv-x="1190" d="M78 717v61q0 340 195.5 546t490.5 206q127 0 212 -14.5t132 -38.5v-240q-43 23 -116.5 41t-172.5 18q-184 0 -287.5 -143t-103.5 -395v-21q0 -270 96.5 -399t263.5 -129q113 0 193 22.5t127 42.5v-233q-35 -23 -127 -44.5t-213 -21.5q-305 0 -497.5 188.5t-192.5 553.5z M635 -326q27 -14 55.5 -20t65.5 -6q41 0 69.5 24.5t28.5 67.5q0 55 -27.5 77.5t-74.5 22.5h-94v195h161v-82q107 0 170.5 -51.5t63.5 -147.5q0 -115 -85 -175.5t-185 -60.5q-74 0 -95.5 5.5t-52.5 17.5v133z" />
<glyph unicode="&#xc8;" horiz-adv-x="1167" d="M147 0v1509h918v-225h-578v-405h449v-228h-449v-426h619v-225h-959zM331 1937h295l250 -354h-217z" />
<glyph unicode="&#xc9;" horiz-adv-x="1167" d="M147 0v1509h918v-225h-578v-405h449v-228h-449v-426h619v-225h-959zM402 1583l250 354h295l-328 -354h-217z" />
<glyph unicode="&#xca;" horiz-adv-x="1167" d="M147 0v1509h918v-225h-578v-405h449v-228h-449v-426h619v-225h-959zM157 1583l352 354h234l352 -354h-217l-252 193l-252 -193h-217z" />
<glyph unicode="&#xcb;" horiz-adv-x="1167" d="M147 0v1509h918v-225h-578v-405h449v-228h-449v-426h619v-225h-959zM271 1725q0 55 39.5 96t95.5 41q57 0 97 -41t40 -96q0 -58 -40 -99t-97 -41q-56 0 -95.5 41t-39.5 99zM729 1725q0 55 40 96t95 41q58 0 98 -41t40 -96q0 -58 -40 -99t-98 -41q-55 0 -95 41t-40 99z " />
<glyph unicode="&#xcc;" horiz-adv-x="750" d="M36 1937h295l250 -354h-217zM205 0v1509h340v-1509h-340z" />
<glyph unicode="&#xcd;" horiz-adv-x="750" d="M188 1583l250 354h295l-328 -354h-217zM205 0v1509h340v-1509h-340z" />
<glyph unicode="&#xce;" horiz-adv-x="750" d="M-84 1583l352 354h234l352 -354h-217l-252 193l-252 -193h-217zM205 0v1509h340v-1509h-340z" />
<glyph unicode="&#xcf;" horiz-adv-x="750" d="M15 1726q0 55 39.5 96t95.5 41q57 0 97 -41t40 -96q0 -58 -40 -99t-97 -41q-56 0 -95.5 41t-39.5 99zM205 0v1509h340v-1509h-340zM473 1726q0 55 40 96t95 41q58 0 98 -41t40 -96q0 -58 -40 -99t-98 -41q-55 0 -95 41t-40 99z" />
<glyph unicode="&#xd0;" horiz-adv-x="1360" d="M60 648v213h603v-213h-603zM147 0v1509h496q340 0 486.5 -194.5t146.5 -530.5v-61q0 -367 -145.5 -545t-430.5 -178h-553zM487 225h156q145 0 218 105.5t73 402.5v41q0 248 -86 379t-234 131h-127v-1059z" />
<glyph unicode="&#xd1;" horiz-adv-x="1397" d="M127 0v1509h182l719 -893v893h242v-1509h-146l-755 948v-948h-242zM278 1684q29 55 98.5 116.5t190.5 61.5q55 0 92 -17.5t72 -39.5q36 -23 71 -39t92 -16q52 0 80.5 25.5t53.5 68.5l110 -92q-29 -64 -103.5 -122.5t-172.5 -58.5q-66 0 -99.5 16.5t-79.5 41.5 q-45 24 -77.5 38.5t-75.5 14.5t-77 -14.5t-73 -67.5z" />
<glyph unicode="&#xd2;" horiz-adv-x="1365" d="M69 702v86q0 328 159.5 535t467.5 207q301 0 455.5 -210t154.5 -532v-81q0 -357 -170 -544.5t-449 -187.5q-276 0 -447 187.5t-171 539.5zM331 1937h295l250 -354h-217zM411 731q0 -311 49 -427t227 -116q146 0 211.5 125t65.5 414v41q0 279 -48 414t-229 135 q-167 0 -221.5 -120t-54.5 -429v-37z" />
<glyph unicode="&#xd3;" horiz-adv-x="1365" d="M69 702v86q0 328 159.5 535t467.5 207q301 0 455.5 -210t154.5 -532v-81q0 -357 -170 -544.5t-449 -187.5q-276 0 -447 187.5t-171 539.5zM411 731q0 -311 49 -427t227 -116q146 0 211.5 125t65.5 414v41q0 279 -48 414t-229 135q-167 0 -221.5 -120t-54.5 -429v-37z M478 1583l250 354h295l-328 -354h-217z" />
<glyph unicode="&#xd4;" horiz-adv-x="1365" d="M69 702v86q0 328 159.5 535t467.5 207q301 0 455.5 -210t154.5 -532v-81q0 -357 -170 -544.5t-449 -187.5q-276 0 -447 187.5t-171 539.5zM233 1583l352 354h234l352 -354h-217l-252 193l-252 -193h-217zM411 731q0 -311 49 -427t227 -116q146 0 211.5 125t65.5 414v41 q0 279 -48 414t-229 135q-167 0 -221.5 -120t-54.5 -429v-37z" />
<glyph unicode="&#xd5;" horiz-adv-x="1365" d="M69 702v86q0 328 159.5 535t467.5 207q301 0 455.5 -210t154.5 -532v-81q0 -357 -170 -544.5t-449 -187.5q-276 0 -447 187.5t-171 539.5zM279 1698q29 55 98.5 116.5t190.5 61.5q55 0 92 -17.5t72 -39.5q36 -23 71 -39t92 -16q52 0 80.5 25.5t53.5 68.5l110 -92 q-29 -64 -103.5 -122.5t-172.5 -58.5q-66 0 -99.5 16.5t-79.5 41.5q-45 24 -77.5 38.5t-75.5 14.5t-77 -14.5t-73 -67.5zM411 731q0 -311 49 -427t227 -116q146 0 211.5 125t65.5 414v41q0 279 -48 414t-229 135q-167 0 -221.5 -120t-54.5 -429v-37z" />
<glyph unicode="&#xd6;" horiz-adv-x="1365" d="M69 702v86q0 328 159.5 535t467.5 207q301 0 455.5 -210t154.5 -532v-81q0 -357 -170 -544.5t-449 -187.5q-276 0 -447 187.5t-171 539.5zM341 1726q0 55 39.5 96t95.5 41q57 0 97 -41t40 -96q0 -58 -40 -99t-97 -41q-56 0 -95.5 41t-39.5 99zM411 731q0 -311 49 -427 t227 -116q146 0 211.5 125t65.5 414v41q0 279 -48 414t-229 135q-167 0 -221.5 -120t-54.5 -429v-37zM799 1726q0 55 40 96t95 41q58 0 98 -41t40 -96q0 -58 -40 -99t-98 -41q-55 0 -95 41t-40 99z" />
<glyph unicode="&#xd7;" d="M197 438l252 252l-252 252l145 145l252 -251l252 251l145 -145l-252 -252l252 -252l-145 -145l-252 252l-252 -252z" />
<glyph unicode="&#xd8;" horiz-adv-x="1365" d="M69 702v86q0 328 159.5 535t467.5 207q301 0 455.5 -210t154.5 -532v-81q0 -357 -170 -544.5t-449 -187.5q-276 0 -447 187.5t-171 539.5zM105 -81l1048 1714l176 -100l-1060 -1737zM411 731q0 -311 49 -427t227 -116q146 0 211.5 125t65.5 414v41q0 279 -48 414 t-229 135q-167 0 -221.5 -120t-54.5 -429v-37z" />
<glyph unicode="&#xd9;" horiz-adv-x="1343" d="M135 494v1015h340v-1056q0 -123 55.5 -184.5t192.5 -61.5q127 0 188.5 55t61.5 197v1050h252v-1073q0 -213 -131 -333.5t-406 -120.5q-295 0 -424 129t-129 383zM358 1937h295l250 -354h-217z" />
<glyph unicode="&#xda;" horiz-adv-x="1343" d="M135 494v1015h340v-1056q0 -123 55.5 -184.5t192.5 -61.5q127 0 188.5 55t61.5 197v1050h252v-1073q0 -213 -131 -333.5t-406 -120.5q-295 0 -424 129t-129 383zM465 1583l250 354h295l-328 -354h-217z" />
<glyph unicode="&#xdb;" horiz-adv-x="1343" d="M135 494v1015h340v-1056q0 -123 55.5 -184.5t192.5 -61.5q127 0 188.5 55t61.5 197v1050h252v-1073q0 -213 -131 -333.5t-406 -120.5q-295 0 -424 129t-129 383zM210 1583l352 354h234l352 -354h-217l-252 193l-252 -193h-217z" />
<glyph unicode="&#xdc;" horiz-adv-x="1343" d="M135 494v1015h340v-1056q0 -123 55.5 -184.5t192.5 -61.5q127 0 188.5 55t61.5 197v1050h252v-1073q0 -213 -131 -333.5t-406 -120.5q-295 0 -424 129t-129 383zM350 1726q0 55 39.5 96t95.5 41q57 0 97 -41t40 -96q0 -58 -40 -99t-97 -41q-56 0 -95.5 41t-39.5 99z M808 1726q0 55 40 96t95 41q58 0 98 -41t40 -96q0 -58 -40 -99t-98 -41q-55 0 -95 41t-40 99z" />
<glyph unicode="&#xdd;" horiz-adv-x="1327" d="M-10 1509h397l332 -606l352 606h270l-501 -870v-639h-340v606zM497 1583l250 354h295l-328 -354h-217z" />
<glyph unicode="&#xde;" horiz-adv-x="1192" d="M147 0v1509h340v-315h172q232 0 360 -103.5t128 -322.5v-63q0 -177 -128 -283.5t-333 -106.5h-199v-315h-340zM487 522h78q115 0 179.5 43t64.5 148v63q0 101 -54.5 160t-189.5 59h-78v-473z" />
<glyph unicode="&#xdf;" horiz-adv-x="1365" d="M150 0v1102q0 162 122.5 284.5t319.5 122.5q221 0 319.5 -73.5t98.5 -210.5q0 -99 -77 -168.5t-77 -118.5q0 -57 35 -99t168 -130q123 -82 195.5 -175.5t72.5 -207.5q0 -179 -106.5 -264t-325.5 -85q-16 0 -56 3l-40 2v217q125 0 160.5 27.5t35.5 86.5q0 70 -64.5 124.5 t-121.5 90.5q-137 86 -185.5 158t-48.5 201q0 88 70 173t70 138q0 43 -24.5 68.5t-82.5 25.5q-57 0 -98 -42t-41 -120v-1130h-319z" />
<glyph unicode="&#xe0;" horiz-adv-x="1238" d="M83 373v20q0 193 131 297.5t352 104.5q67 0 132 -19.5t95 -48.5v113q0 59 -54 100t-153 41q-106 0 -189 -23.5t-144 -58.5v197q79 32 176.5 55t236.5 23q223 0 329.5 -100.5t106.5 -321.5v-752h-299l-6 150q-37 -72 -124 -118t-203 -46q-191 0 -289 96t-98 291zM300 1602 h295l250 -354h-217zM406 383q0 -117 55.5 -156t141.5 -39q74 0 133 47.5t59 149.5v31q0 104 -49 158.5t-145 54.5q-90 0 -142.5 -51.5t-52.5 -163.5v-31z" />
<glyph unicode="&#xe1;" horiz-adv-x="1238" d="M83 373v20q0 193 131 297.5t352 104.5q67 0 132 -19.5t95 -48.5v113q0 59 -54 100t-153 41q-106 0 -189 -23.5t-144 -58.5v197q79 32 176.5 55t236.5 23q223 0 329.5 -100.5t106.5 -321.5v-752h-299l-6 150q-37 -72 -124 -118t-203 -46q-191 0 -289 96t-98 291zM368 1248 l250 354h295l-328 -354h-217zM406 383q0 -117 55.5 -156t141.5 -39q74 0 133 47.5t59 149.5v31q0 104 -49 158.5t-145 54.5q-90 0 -142.5 -51.5t-52.5 -163.5v-31z" />
<glyph unicode="&#xe2;" horiz-adv-x="1238" d="M83 373v20q0 193 131 297.5t352 104.5q67 0 132 -19.5t95 -48.5v113q0 59 -54 100t-153 41q-106 0 -189 -23.5t-144 -58.5v197q79 32 176.5 55t236.5 23q223 0 329.5 -100.5t106.5 -321.5v-752h-299l-6 150q-37 -72 -124 -118t-203 -46q-191 0 -289 96t-98 291zM161 1248 l352 354h234l352 -354h-217l-252 193l-252 -193h-217zM406 383q0 -117 55.5 -156t141.5 -39q74 0 133 47.5t59 149.5v31q0 104 -49 158.5t-145 54.5q-90 0 -142.5 -51.5t-52.5 -163.5v-31z" />
<glyph unicode="&#xe3;" horiz-adv-x="1238" d="M83 373v20q0 193 131 297.5t352 104.5q67 0 132 -19.5t95 -48.5v113q0 59 -54 100t-153 41q-106 0 -189 -23.5t-144 -58.5v197q79 32 176.5 55t236.5 23q223 0 329.5 -100.5t106.5 -321.5v-752h-299l-6 150q-37 -72 -124 -118t-203 -46q-191 0 -289 96t-98 291zM204 1362 q29 55 98.5 116.5t190.5 61.5q55 0 92 -17.5t72 -39.5q36 -23 71 -39t92 -16q52 0 80.5 25.5t53.5 68.5l110 -92q-29 -64 -103.5 -122.5t-172.5 -58.5q-66 0 -99.5 16.5t-79.5 41.5q-45 24 -77.5 38.5t-75.5 14.5t-77 -14.5t-73 -67.5zM406 383q0 -117 55.5 -156t141.5 -39 q74 0 133 47.5t59 149.5v31q0 104 -49 158.5t-145 54.5q-90 0 -142.5 -51.5t-52.5 -163.5v-31z" />
<glyph unicode="&#xe4;" horiz-adv-x="1238" d="M83 373v20q0 193 131 297.5t352 104.5q67 0 132 -19.5t95 -48.5v113q0 59 -54 100t-153 41q-106 0 -189 -23.5t-144 -58.5v197q79 32 176.5 55t236.5 23q223 0 329.5 -100.5t106.5 -321.5v-752h-299l-6 150q-37 -72 -124 -118t-203 -46q-191 0 -289 96t-98 291zM262 1406 q0 55 39.5 96t95.5 41q57 0 97 -41t40 -96q0 -58 -40 -99t-97 -41q-56 0 -95.5 41t-39.5 99zM406 383q0 -117 55.5 -156t141.5 -39q74 0 133 47.5t59 149.5v31q0 104 -49 158.5t-145 54.5q-90 0 -142.5 -51.5t-52.5 -163.5v-31zM720 1406q0 55 40 96t95 41q58 0 98 -41 t40 -96q0 -58 -40 -99t-98 -41q-55 0 -95 41t-40 99z" />
<glyph unicode="&#xe5;" horiz-adv-x="1238" d="M83 373v20q0 193 131 297.5t352 104.5q67 0 132 -19.5t95 -48.5v113q0 59 -54 100t-153 41q-106 0 -189 -23.5t-144 -58.5v197q79 32 176.5 55t236.5 23q223 0 329.5 -100.5t106.5 -321.5v-752h-299l-6 150q-37 -72 -124 -118t-203 -46q-191 0 -289 96t-98 291zM358 1499 q0 113 78.5 188.5t197.5 75.5t197.5 -75.5t78.5 -188.5t-78.5 -188.5t-197.5 -75.5t-197.5 75.5t-78.5 188.5zM406 383q0 -117 55.5 -156t141.5 -39q74 0 133 47.5t59 149.5v31q0 104 -49 158.5t-145 54.5q-90 0 -142.5 -51.5t-52.5 -163.5v-31zM503 1499q0 -53 39 -92 t92 -39t92 39t39 92t-39 92t-92 39t-92 -39t-39 -92z" />
<glyph unicode="&#xe6;" horiz-adv-x="1868" d="M63 373v20q0 193 125 297.5t336 104.5q64 0 125.5 -19.5t89.5 -48.5v113q0 59 -51 100t-145 41q-101 0 -179.5 -23.5t-138.5 -58.5v197q76 32 168 55t225 23q111 0 182.5 -25t125.5 -72q45 31 126 67t212 36q247 0 379.5 -155t132.5 -404v-47.5v-59.5h-744 q0 -192 83 -267t216 -75q88 0 179.5 23.5t187.5 70.5v-192q-84 -49 -184.5 -74t-233.5 -25q-150 0 -257.5 46.5t-193.5 152.5q-51 -96 -138 -142t-230 -46q-180 0 -289 96t-109 291zM381 383q0 -117 48 -156t130 -39q70 0 126 47.5t56 149.5v31q0 104 -47 158.5t-137 54.5 q-86 0 -131 -51.5t-45 -163.5v-31zM1034 678h451q-10 170 -66.5 243.5t-154.5 73.5q-86 0 -155 -72.5t-75 -244.5z" />
<glyph unicode="&#xe7;" horiz-adv-x="1124" d="M102 553v49q0 262 162 420t438 158q109 0 197 -28t121 -60v-203q-43 39 -114.5 65.5t-155.5 26.5q-146 0 -223.5 -104.5t-77.5 -286.5v-21q0 -204 63 -289t203 -85q94 0 183 28.5t122 57.5v-220q-19 -16 -113 -51t-196 -35q-279 0 -444 144.5t-165 433.5zM530 -326 q27 -14 55.5 -20t65.5 -6q41 0 69.5 24.5t28.5 67.5q0 55 -27.5 77.5t-74.5 22.5h-94v195h161v-82q107 0 170.5 -51.5t63.5 -147.5q0 -115 -85 -175.5t-185 -60.5q-74 0 -95.5 5.5t-52.5 17.5v133z" />
<glyph unicode="&#xe8;" horiz-adv-x="1303" d="M102 530v82q0 238 144.5 403t419.5 165q262 0 401 -155t139 -404v-47.5v-59.5h-782q0 -192 87 -267t226 -75q92 0 188.5 23.5t198.5 70.5v-192q-88 -49 -194.5 -74t-245.5 -25q-266 0 -424 141.5t-158 413.5zM314 1602h295l250 -354h-217zM426 678h483 q-10 170 -74.5 243.5t-168.5 73.5q-91 0 -162.5 -72.5t-77.5 -244.5z" />
<glyph unicode="&#xe9;" horiz-adv-x="1303" d="M102 530v82q0 238 144.5 403t419.5 165q262 0 401 -155t139 -404v-47.5v-59.5h-782q0 -192 87 -267t226 -75q92 0 188.5 23.5t198.5 70.5v-192q-88 -49 -194.5 -74t-245.5 -25q-266 0 -424 141.5t-158 413.5zM380 1248l250 354h295l-328 -354h-217zM426 678h483 q-10 170 -74.5 243.5t-168.5 73.5q-91 0 -162.5 -72.5t-77.5 -244.5z" />
<glyph unicode="&#xea;" horiz-adv-x="1303" d="M102 530v82q0 238 144.5 403t419.5 165q262 0 401 -155t139 -404v-47.5v-59.5h-782q0 -192 87 -267t226 -75q92 0 188.5 23.5t198.5 70.5v-192q-88 -49 -194.5 -74t-245.5 -25q-266 0 -424 141.5t-158 413.5zM175 1248l352 354h234l352 -354h-217l-252 193l-252 -193 h-217zM426 678h483q-10 170 -74.5 243.5t-168.5 73.5q-91 0 -162.5 -72.5t-77.5 -244.5z" />
<glyph unicode="&#xeb;" horiz-adv-x="1303" d="M102 530v82q0 238 144.5 403t419.5 165q262 0 401 -155t139 -404v-47.5v-59.5h-782q0 -192 87 -267t226 -75q92 0 188.5 23.5t198.5 70.5v-192q-88 -49 -194.5 -74t-245.5 -25q-266 0 -424 141.5t-158 413.5zM292 1391q0 55 39.5 96t95.5 41q57 0 97 -41t40 -96 q0 -58 -40 -99t-97 -41q-56 0 -95.5 41t-39.5 99zM426 678h483q-10 170 -74.5 243.5t-168.5 73.5q-91 0 -162.5 -72.5t-77.5 -244.5zM750 1391q0 55 40 96t95 41q58 0 98 -41t40 -96q0 -58 -40 -99t-98 -41q-55 0 -95 41t-40 99z" />
<glyph unicode="&#xec;" horiz-adv-x="610" d="M-18 1602h295l250 -354h-217zM147 0v1151h320v-1151h-320z" />
<glyph unicode="&#xed;" horiz-adv-x="610" d="M134 1248l250 354h295l-328 -354h-217zM147 0v1151h320v-1151h-320z" />
<glyph unicode="&#xee;" horiz-adv-x="610" d="M-158 1248l352 354h234l352 -354h-217l-252 193l-252 -193h-217zM147 0v1151h320v-1151h-320z" />
<glyph unicode="&#xef;" horiz-adv-x="610" d="M-55 1391q0 55 39.5 96t95.5 41q57 0 97 -41t40 -96q0 -58 -40 -99t-97 -41q-56 0 -95.5 41t-39.5 99zM147 0v1151h320v-1151h-320zM403 1391q0 55 40 96t95 41q58 0 98 -41t40 -96q0 -58 -40 -99t-98 -41q-55 0 -95 41t-40 99z" />
<glyph unicode="&#xf0;" horiz-adv-x="1190" d="M63 528q0 248 125 395.5t355 147.5q78 0 145.5 -39t99.5 -78q-6 80 -28.5 145.5t-59.5 112.5l-100 -108l-106 102l90 97q-25 12 -56.5 17t-66.5 5q-58 0 -112 -13.5t-118 -43.5v231q43 19 98.5 33t131.5 14q84 0 159.5 -17.5t127.5 -49.5l114 120l119 -90l-113 -118 q107 -105 171.5 -284t74.5 -402v-59v-73q-14 -286 -156.5 -442t-414.5 -156q-224 0 -352 162t-128 391zM397 528q0 -159 44 -261.5t143 -102.5q98 0 147 102.5t49 265.5q0 123 -46 223.5t-150 100.5q-86 0 -136.5 -68.5t-50.5 -259.5z" />
<glyph unicode="&#xf1;" horiz-adv-x="1296" d="M150 0v1151h307l6 -184q35 82 134.5 144.5t242.5 62.5q144 0 226.5 -90.5t82.5 -276.5v-807h-320v807q0 45 -38.5 84t-110.5 39q-69 0 -121.5 -29t-89.5 -74v-827h-319zM217 1364q29 55 98.5 116.5t190.5 61.5q55 0 92 -17.5t72 -39.5q36 -23 71 -39t92 -16 q52 0 80.5 25.5t53.5 68.5l110 -92q-29 -64 -103.5 -122.5t-172.5 -58.5q-66 0 -99.5 16.5t-79.5 41.5q-45 24 -77.5 38.5t-75.5 14.5t-77 -14.5t-73 -67.5z" />
<glyph unicode="&#xf2;" horiz-adv-x="1360" d="M102 541v73q0 254 155 410t423 156q270 0 423.5 -157t153.5 -409v-73q0 -267 -153.5 -416.5t-421.5 -149.5q-266 0 -423 153t-157 413zM346 1602h295l250 -354h-217zM434 569q0 -243 66.5 -323t179.5 -80q102 0 175 78t73 325v17q0 233 -72 318t-176 85 q-109 0 -177.5 -91t-68.5 -312v-17z" />
<glyph unicode="&#xf3;" horiz-adv-x="1360" d="M102 541v73q0 254 155 410t423 156q270 0 423.5 -157t153.5 -409v-73q0 -267 -153.5 -416.5t-421.5 -149.5q-266 0 -423 153t-157 413zM434 569q0 -243 66.5 -323t179.5 -80q102 0 175 78t73 325v17q0 233 -72 318t-176 85q-109 0 -177.5 -91t-68.5 -312v-17zM446 1248 l250 354h295l-328 -354h-217z" />
<glyph unicode="&#xf4;" horiz-adv-x="1360" d="M102 541v73q0 254 155 410t423 156q270 0 423.5 -157t153.5 -409v-73q0 -267 -153.5 -416.5t-421.5 -149.5q-266 0 -423 153t-157 413zM225 1248l352 354h234l352 -354h-217l-252 193l-252 -193h-217zM434 569q0 -243 66.5 -323t179.5 -80q102 0 175 78t73 325v17 q0 233 -72 318t-176 85q-109 0 -177.5 -91t-68.5 -312v-17z" />
<glyph unicode="&#xf5;" horiz-adv-x="1360" d="M102 541v73q0 254 155 410t423 156q270 0 423.5 -157t153.5 -409v-73q0 -267 -153.5 -416.5t-421.5 -149.5q-266 0 -423 153t-157 413zM247 1363q29 55 98.5 116.5t190.5 61.5q55 0 92 -17.5t72 -39.5q36 -23 71 -39t92 -16q52 0 80.5 25.5t53.5 68.5l110 -92 q-29 -64 -103.5 -122.5t-172.5 -58.5q-66 0 -99.5 16.5t-79.5 41.5q-45 24 -77.5 38.5t-75.5 14.5t-77 -14.5t-73 -67.5zM434 569q0 -243 66.5 -323t179.5 -80q102 0 175 78t73 325v17q0 233 -72 318t-176 85q-109 0 -177.5 -91t-68.5 -312v-17z" />
<glyph unicode="&#xf6;" horiz-adv-x="1360" d="M102 541v73q0 254 155 410t423 156q270 0 423.5 -157t153.5 -409v-73q0 -267 -153.5 -416.5t-421.5 -149.5q-266 0 -423 153t-157 413zM323 1390q0 55 39.5 96t95.5 41q57 0 97 -41t40 -96q0 -58 -40 -99t-97 -41q-56 0 -95.5 41t-39.5 99zM434 569q0 -243 66.5 -323 t179.5 -80q102 0 175 78t73 325v17q0 233 -72 318t-176 85q-109 0 -177.5 -91t-68.5 -312v-17zM781 1390q0 55 40 96t95 41q58 0 98 -41t40 -96q0 -58 -40 -99t-98 -41q-55 0 -95 41t-40 99z" />
<glyph unicode="&#xf7;" d="M113 582v217h964v-217h-964zM440 332q0 63 45 108t109 45q63 0 108.5 -45t45.5 -108q0 -64 -45.5 -109t-108.5 -45q-64 0 -109 45t-45 109zM440 1036q0 64 45 109t109 45q63 0 108.5 -45t45.5 -109q0 -63 -45.5 -108t-108.5 -45q-64 0 -109 45t-45 108z" />
<glyph unicode="&#xf8;" horiz-adv-x="1360" d="M102 541v73q0 254 155 410t423 156q270 0 423.5 -157t153.5 -409v-73q0 -267 -153.5 -416.5t-421.5 -149.5q-266 0 -423 153t-157 413zM141 -45l985 1368l109 -84l-983 -1374zM434 569q0 -243 66.5 -323t179.5 -80q102 0 175 78t73 325v17q0 233 -72 318t-176 85 q-109 0 -177.5 -91t-68.5 -312v-17z" />
<glyph unicode="&#xf9;" horiz-adv-x="1296" d="M150 346v805h319v-776q0 -90 38 -121t93 -31q70 0 129 25.5t100 79.5v823h320v-1151h-307l-6 180q-56 -76 -154 -139.5t-242 -63.5q-135 0 -212.5 81t-77.5 288zM316 1602h295l250 -354h-217z" />
<glyph unicode="&#xfa;" horiz-adv-x="1296" d="M150 346v805h319v-776q0 -90 38 -121t93 -31q70 0 129 25.5t100 79.5v823h320v-1151h-307l-6 180q-56 -76 -154 -139.5t-242 -63.5q-135 0 -212.5 81t-77.5 288zM420 1248l250 354h295l-328 -354h-217z" />
<glyph unicode="&#xfb;" horiz-adv-x="1296" d="M150 346v805h319v-776q0 -90 38 -121t93 -31q70 0 129 25.5t100 79.5v823h320v-1151h-307l-6 180q-56 -76 -154 -139.5t-242 -63.5q-135 0 -212.5 81t-77.5 288zM176 1248l352 354h234l352 -354h-217l-252 193l-252 -193h-217z" />
<glyph unicode="&#xfc;" horiz-adv-x="1296" d="M150 346v805h319v-776q0 -90 38 -121t93 -31q70 0 129 25.5t100 79.5v823h320v-1151h-307l-6 180q-56 -76 -154 -139.5t-242 -63.5q-135 0 -212.5 81t-77.5 288zM283 1391q0 55 39.5 96t95.5 41q57 0 97 -41t40 -96q0 -58 -40 -99t-97 -41q-56 0 -95.5 41t-39.5 99z M741 1391q0 55 40 96t95 41q58 0 98 -41t40 -96q0 -58 -40 -99t-98 -41q-55 0 -95 41t-40 99z" />
<glyph unicode="&#xfd;" horiz-adv-x="1190" d="M-8 1151h325l293 -774l318 774h260l-664 -1493h-264l182 385zM413 1252l250 354h295l-328 -354h-217z" />
<glyph unicode="&#xfe;" horiz-adv-x="1298" d="M150 -342v1853h319v-520q72 109 157 146t177 37q188 0 292.5 -133.5t104.5 -362.5v-131q0 -268 -124 -415.5t-357 -147.5q-60 0 -130.5 16t-119.5 59v-401h-319zM469 266q8 -39 61.5 -75.5t133.5 -36.5q79 0 142.5 73.5t63.5 335.5v74q0 186 -55 248.5t-127 62.5 q-76 0 -136 -40t-83 -95v-547z" />
<glyph unicode="&#xff;" horiz-adv-x="1190" d="M-8 1151h325l293 -774l318 774h260l-664 -1493h-264l182 385zM233 1391q0 55 39.5 96t95.5 41q57 0 97 -41t40 -96q0 -58 -40 -99t-97 -41q-56 0 -95.5 41t-39.5 99zM691 1391q0 55 40 96t95 41q58 0 98 -41t40 -96q0 -58 -40 -99t-98 -41q-55 0 -95 41t-40 99z" />
<glyph unicode="&#x152;" horiz-adv-x="1877" d="M69 702v38.5v47.5q0 351 179.5 546.5t490.5 195.5q80 0 136 -10.5t97 -10.5h803v-225h-547v-405h429v-228h-429v-426h588v-225h-872q-49 -16 -83 -20.5t-122 -4.5q-340 0 -505 181.5t-165 545.5zM411 727q0 -282 65 -410.5t250 -128.5q65 0 103.5 10.5t67.5 24.5l1 524.5 t1 548.5q-39 9 -82.5 14t-98.5 5q-158 0 -232.5 -123t-74.5 -424v-21.5v-19.5z" />
<glyph unicode="&#x153;" horiz-adv-x="2042" d="M102 543v41.5v40.5q0 249 157 402t386 153q154 0 241 -35t138 -101q68 66 166 101t215 35q262 0 401.5 -155t139.5 -404v-47.5v-59.5h-783q0 -192 87 -267t227 -75q92 0 188 23.5t199 70.5v-192q-88 -49 -194.5 -74t-246.5 -25q-110 0 -219.5 32t-193.5 122 q-60 -66 -151 -110t-212 -44q-237 0 -391 153t-154 415zM434 559q0 -199 55.5 -295t172.5 -96q116 0 171.5 93t55.5 298v26v23q0 166 -55.5 273.5t-171.5 107.5q-119 0 -173.5 -94t-54.5 -287v-26.5v-22.5zM1165 678h484q-11 170 -75.5 243.5t-168.5 73.5q-90 0 -162 -72.5 t-78 -244.5z" />
<glyph unicode="&#x178;" horiz-adv-x="1327" d="M-10 1509h397l332 -606l352 606h270l-501 -870v-639h-340v606zM356 1726q0 55 39.5 96t95.5 41q57 0 97 -41t40 -96q0 -58 -40 -99t-97 -41q-56 0 -95.5 41t-39.5 99zM814 1726q0 55 40 96t95 41q58 0 98 -41t40 -96q0 -58 -40 -99t-98 -41q-55 0 -95 41t-40 99z" />
<glyph unicode="&#x2c6;" horiz-adv-x="1024" d="M43 1323l352 354h234l352 -354h-217l-252 193l-252 -193h-217z" />
<glyph unicode="&#x2dc;" horiz-adv-x="1024" d="M84 1452q29 55 98.5 116.5t190.5 61.5q55 0 92 -17.5t72 -39.5q36 -23 71 -39t92 -16q52 0 80.5 25.5t53.5 68.5l110 -92q-29 -64 -103.5 -122.5t-172.5 -58.5q-66 0 -99.5 16.5t-79.5 41.5q-45 24 -77.5 38.5t-75.5 14.5t-77 -14.5t-73 -67.5z" />
<glyph unicode="&#x2000;" horiz-adv-x="970" />
<glyph unicode="&#x2001;" horiz-adv-x="1941" />
<glyph unicode="&#x2002;" horiz-adv-x="970" />
<glyph unicode="&#x2003;" horiz-adv-x="1941" />
<glyph unicode="&#x2004;" horiz-adv-x="647" />
<glyph unicode="&#x2005;" horiz-adv-x="485" />
<glyph unicode="&#x2006;" horiz-adv-x="323" />
<glyph unicode="&#x2007;" horiz-adv-x="323" />
<glyph unicode="&#x2008;" horiz-adv-x="242" />
<glyph unicode="&#x2009;" horiz-adv-x="388" />
<glyph unicode="&#x200a;" horiz-adv-x="107" />
<glyph unicode="&#x2010;" horiz-adv-x="1190" d="M102 561v238h981v-238h-981z" />
<glyph unicode="&#x2011;" horiz-adv-x="1190" d="M102 561v238h981v-238h-981z" />
<glyph unicode="&#x2012;" horiz-adv-x="1190" d="M102 561v238h981v-238h-981z" />
<glyph unicode="&#x2013;" horiz-adv-x="1024" d="M60 561v238h904v-238h-904z" />
<glyph unicode="&#x2014;" horiz-adv-x="1707" d="M80 561v238h1547v-238h-1547z" />
<glyph unicode="&#x2018;" horiz-adv-x="680" d="M174 854v340q0 178 103.5 257t236.5 79v-148q-84 0 -124 -38.5t-40 -149.5h164v-340h-340z" />
<glyph unicode="&#x2019;" horiz-adv-x="680" d="M178 834v147q84 0 124 39t40 149h-164v340h340v-340q0 -178 -103.5 -256.5t-236.5 -78.5z" />
<glyph unicode="&#x201a;" horiz-adv-x="680" d="M178 0v340h340v-340q0 -178 -103.5 -257t-236.5 -79v148q84 0 124 38.5t40 149.5h-164z" />
<glyph unicode="&#x201c;" horiz-adv-x="1100" d="M133 854v340q0 178 103.5 257t236.5 79v-148q-84 0 -124 -38.5t-40 -149.5h164v-340h-340zM635 854v340q0 178 103.5 257t236.5 79v-148q-84 0 -124 -38.5t-40 -149.5h164v-340h-340z" />
<glyph unicode="&#x201d;" horiz-adv-x="1100" d="M137 834v147q84 0 124 39t40 149h-164v340h340v-340q0 -178 -103.5 -256.5t-236.5 -78.5zM639 834v147q84 0 124 39t40 149h-164v340h340v-340q0 -178 -103.5 -256.5t-236.5 -78.5z" />
<glyph unicode="&#x201e;" horiz-adv-x="1100" d="M137 0v340h340v-340q0 -178 -103.5 -257t-236.5 -79v148q84 0 124 38.5t40 149.5h-164zM639 0v340h340v-340q0 -178 -103.5 -257t-236.5 -79v148q84 0 124 38.5t40 149.5h-164z" />
<glyph unicode="&#x2022;" horiz-adv-x="1195" d="M171 768q0 176 126.5 301.5t300.5 125.5t300 -126t126 -301q0 -173 -124.5 -300t-301.5 -127t-302 126.5t-125 300.5z" />
<glyph unicode="&#x2026;" horiz-adv-x="1749" d="M133 0v326h326v-326h-326zM715 0v326h325v-326h-325zM1296 0v326h326v-326h-326z" />
<glyph unicode="&#x202f;" horiz-adv-x="388" />
<glyph unicode="&#x2039;" horiz-adv-x="743" d="M57 496v213l619 381v-275l-346 -213l346 -205v-274z" />
<glyph unicode="&#x203a;" horiz-adv-x="743" d="M68 123l619 373v213l-619 381v-275l346 -213l-346 -205v-274z" />
<glyph unicode="&#x205f;" horiz-adv-x="485" />
<glyph unicode="&#x20ac;" horiz-adv-x="1524" d="M98 495l48 110h1047l-48 -110h-1047zM98 715l48 110h1139l-46 -110h-1141zM276 660q0 280 190 470t470 190t476 -196l-48 -111q-183 197 -428 197q-230 0 -390 -160t-160 -390t160 -390t390 -160q250 0 428 201v-162q-173 -149 -428 -149q-280 0 -470 190t-190 470z" />
<glyph unicode="&#x2122;" horiz-adv-x="1442" d="M25 1372v121h553v-121h-199v-487h-156v487h-198zM659 885v608h97l291 -291l288 291h64v-608h-174v323l-193 -192h-47l-190 190v-321h-136z" />
<glyph unicode="&#xe000;" horiz-adv-x="1150" d="M0 0v1150h1150v-1150h-1150z" />
<glyph unicode="&#xfb01;" horiz-adv-x="1294" d="M18 963v188h158v43q0 168 100.5 268.5t268.5 100.5q80 0 156.5 -21.5t127.5 -54.5l-84 -170q-26 20 -58 34.5t-79 14.5q-67 0 -91.5 -41t-24.5 -121v-53h657v-1151h-320v961h-340v-961h-319v963h-152z" />
<glyph unicode="&#xfb02;" horiz-adv-x="1276" d="M18 963v188h158v10q0 172 95.5 287t273.5 115q82 0 154.5 -13.5t115.5 -40.5h320v-1509h-320v1290q-29 41 -73 58.5t-89 17.5q-92 0 -126.5 -51t-34.5 -131v-33h215v-190h-218v-961h-319v963h-152z" />
</font>
</defs>
</svg>
